<?xml version="1.0" encoding="UTF-8"?>
<svg id="Calque_1" xmlns="http://www.w3.org/2000/svg" version="1.1" viewBox="0 0 220 60">
  <!-- Generator: Adobe Illustrator 29.3.0, SVG Export Plug-In . SVG Version: 2.1.0 Build 146)  -->
  <defs>
    <style>
      .st0 {
        fill: #4aa5ff;
      }

      .st1 {
        fill: #1d415e;
      }
    </style>
  </defs>
  <g>
    <path class="st0" d="M25.3,1.2C24,2.3-1,24,5.3,43.4c.7,2.1,1.8,4.3,3.6,6.7-.7,1.5-1.5,3-2.2,4.5L41.4,20.3l-3,.8c-1.2-2.8-2.7-6.1-4.9-9.5-2.7-4.4-5.6-7.8-8.2-10.4Z"/>
    <path d="M11.8,32.6"/>
    <path class="st1" d="M43.9,19.7l-12.2,12.3c2.2,3.6,2,8-.4,11.1-2.9,3.7-8.5,4.8-13,2.1-3.8,3.7-7.7,7.3-11.5,11l7.8-3.2,3.9,1.9,1.5,3.9h6.2c0,0,1.8-4.1,1.8-4.1l4.1-1.4,3.8,1.9,4.8-4.4-1.8-4.4,1.9-3.8,4.3-1.7v-6.5c0,0-4.1-1.4-4.1-1.4l-1.7-4.3,4.5-8.9Z"/>
    <polygon class="st0" points="8.9 50.1 6 55.8 9.9 51.4 8.9 50.1"/>
    <polygon class="st0" points="38.4 21.1 42.9 19.1 38.9 22.8 38.4 21.1"/>
  </g>
  <g>
    <g>
      <path class="st1" d="M60.4,24.1l-2,6h-2.6l6.5-19.2h3l6.6,19.2h-2.7l-2.1-6h-6.8ZM66.7,22.2l-1.9-5.5c-.4-1.3-.7-2.4-1-3.5h0c-.3,1.1-.6,2.3-1,3.5l-1.9,5.6h5.8Z"/>
      <path class="st1" d="M74.7,11.2c1.1-.2,2.8-.4,4.5-.4,2.5,0,4.1.4,5.3,1.4,1,.8,1.6,1.9,1.6,3.4s-1.2,3.5-3.2,4.2h0c1.8.5,4,2,4,4.9s-.7,2.9-1.6,3.8c-1.3,1.2-3.5,1.8-6.6,1.8s-3-.1-3.8-.2V11.2ZM77.2,19.1h2.3c2.6,0,4.1-1.4,4.1-3.2s-1.7-3.1-4.2-3.1-1.8,0-2.2.2v6.2ZM77.2,28.3c.5.1,1.2.1,2.1.1,2.6,0,4.9-.9,4.9-3.7s-2.3-3.7-5-3.7h-2.1v7.3Z"/>
      <path class="st1" d="M90.1,11.2c1.5-.2,3.3-.4,5.3-.4,3.6,0,6.1.8,7.8,2.4,1.7,1.6,2.7,3.8,2.7,6.9s-1,5.7-2.8,7.5c-1.8,1.8-4.8,2.8-8.5,2.8s-3.2,0-4.5-.2V11.2ZM92.6,28.2c.6.1,1.5.1,2.5.1,5.3,0,8.2-2.9,8.2-8.1,0-4.5-2.5-7.4-7.8-7.4s-2.2.1-2.9.3v15.2Z"/>
      <path class="st1" d="M111.8,24.1l-2,6h-2.6l6.5-19.2h3l6.6,19.2h-2.7l-2.1-6h-6.8ZM118.1,22.2l-1.9-5.5c-.4-1.3-.7-2.4-1-3.5h0c-.3,1.1-.6,2.3-1,3.5l-1.9,5.6h5.8Z"/>
      <path class="st1" d="M134.2,30.2l-4.9-19.2h2.6l2.3,9.7c.6,2.4,1.1,4.8,1.4,6.6h0c.3-1.9.9-4.2,1.6-6.7l2.6-9.7h2.6l2.3,9.7c.5,2.3,1.1,4.6,1.3,6.6h0c.4-2.1.9-4.2,1.5-6.6l2.5-9.7h2.5l-5.4,19.2h-2.6l-2.4-10c-.6-2.5-1-4.3-1.3-6.3h0c-.3,1.9-.8,3.8-1.5,6.3l-2.7,10h-2.6Z"/>
      <path class="st1" d="M156.7,24.1l-2,6h-2.6l6.5-19.2h3l6.6,19.2h-2.7l-2.1-6h-6.8ZM163,22.2l-1.9-5.5c-.4-1.3-.7-2.4-1-3.5h0c-.3,1.1-.6,2.3-1,3.5l-1.9,5.6h5.8Z"/>
      <path class="st1" d="M172.4,13.1h-5.8v-2.1h14.2v2.1h-5.9v17.1h-2.5V13.1Z"/>
      <path class="st1" d="M192.9,21.2h-7.4v6.9h8.3v2.1h-10.8V11h10.4v2.1h-7.9v6.1h7.4v2.1Z"/>
      <path class="st1" d="M196.9,11.2c1.3-.3,3.1-.4,4.8-.4,2.6,0,4.4.5,5.6,1.6.9.8,1.5,2.1,1.5,3.6,0,2.5-1.6,4.2-3.6,4.9h0c1.5.6,2.3,2,2.8,4,.6,2.7,1.1,4.5,1.5,5.3h-2.6c-.3-.6-.7-2.2-1.3-4.6-.6-2.6-1.6-3.6-3.9-3.7h-2.3v8.3h-2.5V11.2ZM199.4,20h2.5c2.7,0,4.3-1.4,4.3-3.6s-1.8-3.6-4.4-3.6c-1.2,0-2,.1-2.5.2v7Z"/>
    </g>
    <g>
      <path class="st1" d="M58.4,36.2v16h-2.1v-16h2.1Z"/>
      <path class="st1" d="M62.1,43.8c0-1.2,0-2.1,0-3.1h1.8v1.9h.2c.6-1.1,1.9-2.1,3.8-2.1s4,.9,4,4.9v6.8h-2.1v-6.6c0-1.9-.7-3.4-2.7-3.4s-2.4,1-2.8,2.1c0,.3-.1.6-.1,1v6.9h-2.1v-8.4Z"/>
      <path class="st1" d="M85.2,35.3v13.9c0,1,0,2.2,0,3h-1.9v-2h-.2c-.6,1.3-2,2.2-3.9,2.2-2.8,0-4.9-2.4-4.9-5.8,0-3.8,2.4-6.2,5.2-6.2s2.9.8,3.5,1.7h0v-6.9h2.1ZM83.1,45.4c0-.3,0-.6,0-.9-.3-1.3-1.5-2.4-3-2.4s-3.5,1.9-3.5,4.4,1.2,4.3,3.4,4.3,2.7-.9,3-2.5c0-.3.1-.6.1-.9v-2Z"/>
      <path class="st1" d="M98.3,49c0,1.2,0,2.2,0,3.1h-1.8v-1.9h-.2c-.5.9-1.7,2.1-3.8,2.1s-4-1-4-5v-6.7h2.1v6.3c0,2.2.7,3.7,2.6,3.7s2.4-1,2.8-1.9c.1-.3.2-.7.2-1.1v-7h2.1v8.3Z"/>
      <path class="st1" d="M101.5,50c.6.4,1.7.8,2.8.8,1.5,0,2.2-.7,2.2-1.7s-.6-1.5-2.1-2.1c-2.1-.8-3.1-1.9-3-3.3,0-1.8,1.5-3.4,4-3.4s2.2.3,2.8.7l-.5,1.5c-.4-.3-1.3-.7-2.4-.7s-1.9.7-1.9,1.6.7,1.4,2.2,2c2,.7,3,1.7,3,3.4,0,2-1.6,3.5-4.3,3.5s-2.4-.3-3.2-.8l.5-1.6Z"/>
      <path class="st1" d="M113.6,37.4v3.3h3v1.6h-3v6.2c0,1.4.4,2.2,1.6,2.2s.9,0,1.2-.2v1.6c-.3.2-1,.3-1.8.3s-1.8-.3-2.3-.9c-.6-.6-.8-1.6-.8-3v-6.3h-1.8v-1.6h1.8v-2.8l2-.5Z"/>
      <path class="st1" d="M119,44.3c0-1.4,0-2.5,0-3.6h1.8v2.3h.2c.5-1.5,1.8-2.5,3.2-2.5s.4,0,.6,0v2c-.2,0-.4,0-.7,0-1.5,0-2.5,1.1-2.8,2.7,0,.3,0,.6,0,1v6.1h-2.1v-7.9Z"/>
      <path class="st1" d="M128.1,40.7l2.5,6.8c.3.8.6,1.7.7,2.3h0c.2-.7.5-1.6.7-2.4l2.3-6.7h2.2l-3.1,8.2c-1.5,3.9-2.5,6-3.9,7.2-1,.9-2,1.2-2.6,1.3l-.5-1.7c.5-.2,1.2-.5,1.8-1,.6-.5,1.3-1.3,1.7-2.3.1-.2.2-.4.2-.5s0-.3-.1-.5l-4.2-10.6h2.3Z"/>
    </g>
  </g>
</svg>