<svg id="Calque_1" xmlns="http://www.w3.org/2000/svg" version="1.1" viewBox="0 0 198.6 279.4">
  <!-- Generator: Adobe Illustrator 29.3.0, SVG Export Plug-In . SVG Version: 2.1.0 Build 146)  -->
  <defs>
    <style>
      .st0 {
        fill: #15add6;
      }

      .st1 {
        fill: #093365;
      }
    </style>
  </defs>
  <path class="st0" d="M101.8,0C95.3,5.5-25.6,110.5,4.9,204.8c3.3,10.1,8.6,21.1,17.2,32.3-3.6,7.3-7.3,14.5-10.9,21.8L179.8,92.9l-14.7,3.8c-5.7-13.8-13.3-29.5-23.7-46.1C128.1,29.5,114.1,12.7,101.8,0Z"/>
  <path class="st0" d="M36.3,152.5"/>
  <path class="st1" d="M191.7,90l-59,59.6c10.5,17.3,9.6,38.9-1.9,53.8-14,18-41.2,23.1-62.9,10.2-18.6,17.7-37.1,35.5-55.7,53.2l38-15.6,19.1,9.2,7.5,18.7,30.1.3,8.6-20.4,19.9-6.8,18.5,9.2,23.3-21.5-8.7-21.2,9.2-18.5,20.6-8.1.3-31.4-20.4-6.6-8.1-20.6,21.6-43.3Z"/>
  <polygon class="st0" points="22.2 237.1 8.1 264.9 27.2 243.2 22.2 237.1"/>
  <polygon class="st0" points="165.1 96.8 186.9 86.8 167.8 104.7 165.1 96.8"/>
</svg>